<?xml version="1.0" encoding="utf-8"?>
<!-- Generator: Adobe Illustrator 20.0.0, SVG Export Plug-In . SVG Version: 6.00 Build 0)  -->
<svg version="1.1" id="Layer_1" xmlns="http://www.w3.org/2000/svg" xmlns:xlink="http://www.w3.org/1999/xlink" x="0px" y="0px"
	 viewBox="0 0 96 124" style="enable-background:new 0 0 96 124;" xml:space="preserve">
<style type="text/css">
	.st0{fill:none;}
	.st1{fill:#E23473;}
	.st2{fill:#F4F4F5;}
	.st3{fill:none;stroke:#E23473;stroke-width:2;stroke-linecap:round;stroke-miterlimit:10;}
</style>
<rect id="background" class="st0" width="96" height="124"/>
<g>
	<path class="st1" d="M13,1.5v13L1.7,8L13,1.5z"/>
	<path class="st1" d="M17.5,3h13L24,14.3L17.5,3z"/>
	<path class="st1" d="M35,1.5v13L46.3,8L35,1.5z"/>
</g>
<g transform="translate(0, 16)">
	<path class="st2" d="M13,1.5v13L1.7,8L13,1.5z"/>
	<path class="st2" d="M17.5,3h13L24,14.3L17.5,3z"/>
	<path class="st2" d="M35,1.5v13L46.3,8L35,1.5z"/>
</g>
<g>
	<g>
		<path class="st1" d="M29.3,40c0.3,0,0.5,0.1,0.7,0.3l1.2,1.2c0.9,0.9,2.2,1.5,3.5,1.5H41c0.6,0,1,0.4,1,1s-0.4,1-1,1H5
			c-0.6,0-1-0.4-1-1s0.4-1,1-1h6.3c1.3,0,2.6-0.5,3.5-1.5l1.2-1.2c0.2-0.2,0.4-0.3,0.7-0.3H29.3 M29.3,38H16.7
			c-0.8,0-1.6,0.3-2.1,0.9l-1.2,1.2c-0.6,0.6-1.3,0.9-2.1,0.9H5c-1.7,0-3,1.3-3,3s1.3,3,3,3h36c1.7,0,3-1.3,3-3s-1.3-3-3-3h-6.3
			c-0.8,0-1.6-0.3-2.1-0.9l-1.2-1.2C30.8,38.3,30.1,38,29.3,38L29.3,38z"/>
	</g>
</g>
<g>
	<g>
		<path class="st1" d="M16,98.5c5.2,0,9.5,4.3,9.5,9.5s-4.3,9.5-9.5,9.5s-9.5-4.3-9.5-9.5S10.8,98.5,16,98.5 M16,96.5
			c-6.4,0-11.5,5.1-11.5,11.5s5.1,11.5,11.5,11.5s11.5-5.1,11.5-11.5S22.4,96.5,16,96.5L16,96.5z"/>
	</g>
	<g>
		<circle class="st1" cx="16" cy="108" r="4.3"/>
	</g>
	<path class="st3" d="M27,108h3"/>
	<path class="st3" d="M2,108h3"/>
	<path class="st3" d="M16,119v3"/>
	<path class="st3" d="M16,94v3"/>
</g>
<g>
	<g>
		<path class="st1" d="M48.1,94c7.7,0,14,6.3,14,14s-6.3,14-14,14s-14-6.3-14-14S40.4,94,48.1,94 M48.1,92c-8.8,0-16,7.1-16,16
			s7.1,16,16,16s16-7.1,16-16S56.9,92,48.1,92L48.1,92z"/>
	</g>
	<g>
		<line class="st3" x1="48.1" y1="112.7" x2="48.1" y2="103.2"/>
		<line class="st3" x1="43.3" y1="108" x2="52.8" y2="108"/>
	</g>
</g>
<g>
	<g>
		<path class="st1" d="M80,94c7.7,0,14,6.3,14,14s-6.3,14-14,14s-14-6.3-14-14S72.3,94,80,94 M80,92c-8.8,0-16,7.1-16,16
			s7.1,16,16,16s16-7.1,16-16S88.8,92,80,92L80,92z"/>
	</g>
	<g>
		<line class="st3" x1="75.3" y1="108" x2="84.8" y2="108"/>
	</g>
</g>
<g>
	<path class="st1" d="M38.9,52.1v35.6c0,1.2-0.8,2.2-1.8,2.2H8.9c-1,0-1.8-1-1.8-2.2V52.1H38.9 M40.9,50.1H5.1v37.6
		c0,2.3,1.7,4.2,3.8,4.2H37c2.1,0,3.8-1.9,3.8-4.2V50.1L40.9,50.1z"/>
</g>
<path class="st1" d="M52.2,25.5c0,0,1.4,0.9,1.6,1.4c0,0,0.8-3.1,3.5-5.9L54,28.1L52.2,25.5z"/>
</svg>
